<svg width="599" height="385" viewBox="0 0 599 385" fill="none" xmlns="http://www.w3.org/2000/svg">
<path d="M250.513 253.17C250.047 245.41 239.524 240.252 232.911 244.543C233.005 240.344 227.789 236.966 223.878 238.746C222.621 233.725 214.845 231.945 211.492 235.871C205.951 228.75 199.944 221.721 192.028 217.247C184.112 212.774 173.915 211.268 165.859 215.513C157.943 219.667 153.706 228.293 150.959 236.692C146.721 236.053 142.251 236.92 138.666 239.157C134.987 235.916 128.887 236.829 125.116 239.979C121.344 243.082 119.388 247.784 117.852 252.394L105 256C105 256 357.975 256 356.997 256C356.019 256 250.513 253.17 250.513 253.17Z" fill="url(#paint0_linear_770_6368)"/>
<path d="M568.972 165H370.049C369.49 162.399 373.763 156.899 382.407 160.357C367.781 150.412 369.851 129.865 373.533 123.937C382.342 109.712 402.983 109.712 412.285 116.792C411.924 105.695 419.056 93.2473 428.424 87.7481C441.44 80.0427 459.978 78.7914 481.212 92.0948C483.94 90.0203 495.576 85.8383 506.653 89.5922C515.297 92.5229 521.542 100.722 523.547 109.416C525.519 118.01 523.679 128.58 519.472 135.265C529.628 131.742 545.471 130.391 554.773 135.759C570.287 144.617 568.972 165 568.972 165Z" fill="url(#paint1_linear_770_6368)"/>
<path d="M455.728 136.577C458.788 132.609 463.549 130.115 468.877 130.115C478.059 130.115 485.484 137.54 485.484 146.722" stroke="black" stroke-miterlimit="10" stroke-linecap="round"/>
<path d="M377 153.242C377 146.894 382.158 141.793 388.449 141.793C390.886 141.793 393.097 142.53 394.967 143.833C394.967 126.83 408.74 113 425.801 113C442.804 113 456.634 126.773 456.634 143.833" stroke="black" stroke-miterlimit="10" stroke-linecap="round" stroke-linejoin="round"/>
<path d="M471.881 160.326C471.881 152.787 478.002 146.666 485.541 146.666C493.079 146.666 499.2 152.787 499.2 160.326" stroke="black" stroke-miterlimit="10" stroke-linecap="round"/>
<path d="M163.849 180H32.0322C31.6619 178.276 34.4934 174.632 40.2217 176.923C30.5293 170.333 31.9015 156.717 34.3409 152.79C40.1782 143.363 53.8565 143.363 60.0204 148.055C59.7808 140.701 64.5072 132.453 70.7148 128.809C79.3399 123.703 91.6243 122.874 105.695 131.689C107.502 130.315 115.213 127.543 122.553 130.031C128.281 131.973 132.42 137.406 133.748 143.167C135.055 148.862 133.835 155.866 131.047 160.296C137.778 157.961 148.276 157.067 154.44 160.623C164.72 166.493 163.849 180 163.849 180Z" fill="url(#paint2_linear_770_6368)"/>
<path d="M135.192 161.164C137.221 158.535 140.375 156.883 143.906 156.883C149.99 156.883 154.911 161.803 154.911 167.887" stroke="black" stroke-miterlimit="10" stroke-linecap="round"/>
<path d="M83.0239 172.209C83.0239 168.003 86.4418 164.623 90.6107 164.623C92.2258 164.623 93.6905 165.111 94.93 165.975C94.93 154.707 104.057 145.543 115.362 145.543C126.629 145.543 135.794 154.67 135.794 165.975" stroke="black" stroke-miterlimit="10" stroke-linecap="round" stroke-linejoin="round"/>
<path d="M145.897 176.903C145.897 171.908 149.953 167.852 154.949 167.852C159.944 167.852 164 171.908 164 176.903" stroke="black" stroke-miterlimit="10" stroke-linecap="round"/>
<path d="M218.787 92.3726C218.787 92.3726 231.891 104.316 248.047 91.8699C248.047 91.8699 264.135 103.436 280.265 91.343C280.265 91.343 287.814 96.6173 299.66 96.4028C311.507 96.1884 318.765 90.6754 318.765 90.6754C335.215 102.149 350.984 90.1485 350.984 90.1485C367.518 102.102 380.243 89.6458 380.243 89.6458L380.243 87.9895C379.309 43.3187 342.579 7.79145 298.035 8.61671C253.498 9.32427 217.971 46.0539 218.796 90.5985L218.787 92.3726Z" fill="url(#paint3_linear_770_6368)"/>
<path d="M289.837 9.08898C281.009 10.1117 272.667 12.589 264.948 16.2942C246.331 46.5473 247.075 82.331 247.677 92.0758C247.803 91.9666 247.921 91.975 248.047 91.8658C248.047 91.8658 264.136 103.432 280.266 91.3389C279.346 77.7853 277.461 33.1645 289.837 9.08898Z" fill="white"/>
<path d="M331.403 15.1513C323.593 11.8695 315.237 9.61333 306.299 8.85352C319.39 32.5091 319.03 77.087 318.647 90.6655C335.215 102.148 350.984 90.147 350.984 90.147C351.093 90.2732 351.211 90.2816 351.32 90.4078C351.55 80.6044 351.05 44.7199 331.403 15.1513Z" fill="white"/>
<path opacity="0.5" d="M297.521 45.3117C304.983 45.1266 312.874 47.7194 317.394 53.7973L317.66 54.1552L318.045 53.9322C322.65 51.2669 329.555 50.758 335.823 52.5432C342.083 54.3263 347.588 58.3601 349.522 64.6478L349.648 65.0573L350.072 64.9957C361.998 63.2559 370.062 65.388 374.779 69.9227C379.458 74.4223 380.969 81.4125 379.534 89.7466C379.53 89.7502 379.526 89.7547 379.522 89.7585C379.431 89.8397 379.294 89.96 379.113 90.109C378.751 90.4071 378.213 90.8226 377.515 91.2857C376.117 92.2131 374.086 93.3273 371.551 94.0758C366.502 95.5667 359.41 95.6227 351.277 89.7431L350.976 89.5257L350.681 89.7503L350.68 89.7512C350.678 89.7522 350.676 89.7541 350.673 89.7565C350.666 89.7615 350.656 89.7694 350.642 89.7798C350.613 89.8005 350.57 89.8315 350.513 89.8723C350.398 89.9541 350.225 90.0739 349.999 90.2232C349.546 90.5218 348.878 90.9388 348.025 91.4032C346.316 92.3327 343.869 93.4522 340.919 94.2152C335.028 95.739 327.135 95.8406 319.062 90.1487L318.762 89.9372L318.471 90.1592C318.471 90.1595 318.47 90.1599 318.468 90.1609C318.466 90.1629 318.461 90.1662 318.455 90.1707C318.442 90.1799 318.423 90.1947 318.397 90.2135C318.344 90.2515 318.264 90.3083 318.157 90.3813C317.943 90.5274 317.621 90.738 317.196 90.9929C316.348 91.5027 315.092 92.1878 313.468 92.8802C310.22 94.2651 305.507 95.679 299.66 95.7848C293.813 95.8906 289.029 94.6422 285.708 93.3686C284.048 92.7319 282.755 92.0891 281.879 91.6075C281.442 91.3669 281.109 91.1663 280.887 91.0272C280.776 90.9577 280.693 90.9036 280.638 90.8674C280.611 90.8492 280.59 90.8356 280.577 90.8268C280.571 90.8224 280.566 90.8189 280.563 90.817C280.562 90.8161 280.561 90.8151 280.561 90.8148L280.264 90.6075L279.974 90.8246C272.053 96.763 264.159 96.8909 258.228 95.5356C255.258 94.8569 252.781 93.8057 251.048 92.9241C250.182 92.4836 249.503 92.0861 249.042 91.8C248.812 91.6571 248.636 91.5425 248.519 91.4639C248.46 91.4245 248.416 91.3941 248.387 91.3741C248.373 91.3642 248.362 91.356 248.355 91.3513C248.353 91.3493 248.35 91.3479 248.349 91.3469L248.347 91.3458L248.045 91.1283L247.75 91.3558C239.806 97.4755 232.656 97.5808 227.498 96.1878C224.908 95.4885 222.811 94.4082 221.361 93.5023C220.636 93.0496 220.075 92.6412 219.697 92.348C219.52 92.2107 219.383 92.0986 219.289 92.0191C218.948 82.6184 221.866 76.0899 226.903 72.3732C231.993 68.6181 239.36 67.6454 248.027 69.6471L248.595 69.7779L248.638 69.1965C249.05 63.6155 253.962 58.0711 260.347 54.7125C266.722 51.3595 274.35 50.3011 280.032 53.4379L280.48 53.6855L280.718 53.2315C281.958 50.8586 284.273 48.9241 287.243 47.5563C290.21 46.1898 293.797 45.4041 297.521 45.3117Z" fill="url(#paint4_radial_770_6368)" stroke="white"/>
<path d="M303.738 169.812C303.821 171.947 302.038 173.712 299.902 173.796C297.767 173.879 296.002 172.096 295.918 169.96C295.835 167.825 297.618 166.06 299.754 165.976C301.881 166.011 303.654 167.676 303.738 169.812Z" fill="white"/>
<path d="M219.295 91.998L274.779 172.014M274.779 172.014L324.009 177.553M274.779 172.014L248 69.5M324.009 177.553L379.795 89.4985M324.009 177.553L349.5 64.9995" stroke="white" stroke-linecap="round"/>
<path fill-rule="evenodd" clip-rule="evenodd" d="M318.142 168.223C306.584 158.483 294.996 137.998 306.6 126.017C314.09 118.289 327.522 106.944 320.063 97.2194C317.807 94.276 313.46 91.1329 308.645 92.22C304.671 93.1223 302.719 96.7682 303.924 99.0534C304.998 101.087 306.491 101.494 307.906 103.106C310.512 106.079 303.59 113.778 296.909 122.283C285.585 136.704 295.991 164 313.639 171.965L318.142 168.216L318.142 168.223Z" fill="#050202"/>
<path d="M322.784 218.302C322.784 227.784 309.084 235.47 292.186 235.47C275.287 235.47 261.588 227.784 261.588 218.302C261.588 208.82 275.287 201.133 292.186 201.133C309.084 201.133 322.784 208.82 322.784 218.302Z" fill="black"/>
<path d="M343.557 177.332C344.141 179.146 341.154 181.239 341.89 182.56C342.332 183.357 343.592 182.925 344.329 184.038C344.725 184.637 344.862 185.516 344.588 186.232C344.065 187.584 342.388 187.497 342.251 188.386C342.083 189.433 344.359 189.885 344.588 191.394C344.816 192.872 342.759 193.314 342.007 195.524C341.032 198.389 343.577 200.345 342.459 201.986C341.347 203.626 338.451 202.199 336.973 204.038C335.728 205.587 337.227 207.304 335.942 208.94C334.656 210.576 332.721 209.423 330.938 211.135C329.18 212.821 330.171 214.792 328.586 215.778C326.889 216.834 325.182 214.929 323.272 216.012C321.738 216.885 322.144 218.516 320.712 219.649C319.741 220.421 317.958 220.934 314.402 219.771C313.625 220.462 312.848 221.152 312.071 221.838C312.833 222.913 289.236 231.078 275.418 221.975C261.601 212.873 274.738 221.625 274.001 220.944C272.777 219.811 272.878 219.12 272.192 218.75C270.811 217.998 269.343 220.299 267.666 219.75C265.883 219.171 266.417 216.499 264.456 215.519C262.419 214.503 260.498 216.718 258.908 215.646C257.349 214.599 258.487 211.988 256.846 210.871C255.352 209.855 253.65 211.49 252.33 210.484C250.897 209.387 252.396 207.055 250.912 205.196C249.398 203.301 246.797 204.409 245.751 202.616C244.908 201.173 246.411 200.142 245.751 197.972C244.989 195.478 242.566 195.412 242.398 193.456C242.236 191.607 244.359 191.135 244.359 189.159C244.359 186.603 240.808 185.765 241.011 183.733C241.23 181.533 245.517 181.112 245.619 178.877C245.69 177.302 243.617 176.646 243.81 175.133C243.993 173.72 246.472 174.091 247.295 172.425C248.235 170.525 245.949 168.513 246.909 167.137C247.808 165.846 250.221 167.015 251.166 165.719C252.248 164.236 249.886 161.63 250.907 160.299C251.303 159.781 252.253 159.4 254.651 159.913C258.08 148.91 263.292 141.737 266.909 137.591C270.795 133.151 275.413 127.863 280.077 128.818C283.501 129.524 285.756 133.355 289.236 139.268C291.136 142.499 292.406 145.389 293.234 147.523C295.002 145.867 297.267 144.129 298.654 144.815C300.067 145.511 299.716 148.3 300.849 148.559C302.2 148.864 303.399 145.044 305.233 145.074C306.152 145.089 307.295 146.065 308.586 149.59C312.294 147.01 317.643 143.672 324.517 140.629C331.913 137.352 335.662 135.742 338.278 137.175C342.815 139.654 342.475 148.686 342.002 161.335C341.784 167.111 341.23 171.963 340.712 175.529C342.79 176.027 343.374 176.784 343.552 177.337L343.557 177.332Z" fill="#050202"/>
<ellipse cx="292.779" cy="222.529" rx="2.03986" ry="3.56975" transform="rotate(-90 292.779 222.529)" fill="#EE8282"/>
<path d="M284.97 150.314C284.147 151.523 282.186 151.005 279.356 151.183C272.163 151.64 269.13 156.014 267.84 154.957C265.391 152.951 274.221 135.348 278.869 136.379C279.834 136.593 280.982 139.057 283.278 143.989C285.361 148.47 285.468 149.572 284.965 150.314H284.97Z" fill="#EE8282"/>
<path d="M333.28 165.234C331.715 165.701 330.775 162.699 325.924 159.427C321.875 156.694 319.457 156.714 319.249 155.074C319.03 153.362 321.469 151.782 325.055 149.46C329.597 146.519 332.355 144.736 334.149 145.782C335.861 146.778 335.708 149.77 335.408 155.749C335.144 160.921 334.956 164.731 333.28 165.234Z" fill="#EE8282"/>
<path d="M232.481 227.613C221.47 214.46 265.5 209.241 274.148 207.937L277.03 222.93C277.03 222.93 265.464 219.675 253.707 225.009C256.573 232.039 245.559 243.235 232.481 227.613Z" fill="black"/>
<path d="M348.984 227.98C359.995 214.828 315.965 209.608 307.317 208.304L304.436 223.297C304.436 223.297 316.001 220.042 327.758 225.376C324.893 232.406 335.906 243.602 348.984 227.98Z" fill="black"/>
<path d="M366.415 177.142C367.165 177.106 367.802 177.685 367.838 178.435C367.874 179.185 367.296 179.823 366.545 179.859C361.514 180.101 355.137 180.859 348.014 182.847L348.014 182.847C339.564 185.208 332.856 188.515 328.056 191.355C327.41 191.737 326.576 191.523 326.194 190.877C325.811 190.23 326.025 189.397 326.672 189.014C331.631 186.081 338.557 182.665 347.282 180.228L347.283 180.227L347.97 180.039C355.049 178.126 361.384 177.385 366.415 177.142Z" fill="#EE8282"/>
<path d="M330.103 196.684C334.64 196.098 340.111 195.742 346.278 196.047L346.277 196.047C355.272 196.488 362.789 198.19 368.381 199.896L368.917 200.061L368.983 200.084C369.658 200.332 370.027 201.07 369.81 201.764C369.593 202.459 368.871 202.856 368.175 202.677L368.107 202.658L367.588 202.498C362.338 200.896 355.339 199.298 346.984 198.808L346.144 198.763H346.144C340.161 198.468 334.852 198.814 330.451 199.381L329.583 199.498C328.839 199.601 328.152 199.082 328.049 198.338C327.945 197.594 328.464 196.908 329.208 196.804L330.103 196.684Z" fill="#ED7B4C"/>
<path d="M216.176 176.127C215.426 176.09 214.789 176.669 214.753 177.419C214.716 178.17 215.295 178.807 216.045 178.843C221.077 179.086 227.453 179.843 234.577 181.831L234.576 181.831C243.027 184.192 249.735 187.5 254.535 190.339C255.181 190.722 256.015 190.508 256.397 189.861C256.78 189.215 256.566 188.381 255.919 187.999C250.96 185.065 244.034 181.65 235.308 179.212L235.308 179.212L234.621 179.023C227.542 177.111 221.207 176.369 216.176 176.127Z" fill="#EE8282"/>
<path d="M252.487 195.668C247.951 195.083 242.479 194.727 236.313 195.031L236.313 195.031C227.319 195.473 219.802 197.175 214.209 198.88L213.674 199.045L213.607 199.068C212.932 199.317 212.564 200.054 212.78 200.749C212.997 201.443 213.719 201.84 214.416 201.661L214.483 201.642L215.002 201.482C220.253 199.881 227.252 198.282 235.606 197.793L236.446 197.748H236.447C242.43 197.452 247.739 197.798 252.139 198.366L253.007 198.482C253.751 198.586 254.438 198.066 254.542 197.323C254.645 196.579 254.126 195.892 253.382 195.788L252.487 195.668Z" fill="#ED7B4C"/>
<path d="M319.735 191.04C317.978 206.204 302.621 215.089 289.966 214.906C288.356 214.881 276.332 214.51 268.519 204.523C266.913 202.47 262.275 195.912 262.905 187.845C264.104 172.539 283.906 156.506 301.417 162.526C312.313 166.27 321.229 178.183 319.735 191.04Z" fill="white"/>
<path d="M309.261 188.851C305.474 179.487 294.814 174.966 285.45 178.753C276.087 182.539 271.566 193.2 275.352 202.563C279.139 211.927 289.799 216.448 299.163 212.661C308.526 208.875 313.047 198.215 309.261 188.851Z" fill="#86BF2D"/>
<path d="M301.392 192.594C299.299 187.418 293.406 184.918 288.229 187.011C283.053 189.105 280.554 194.998 282.647 200.174C284.74 205.351 290.633 207.85 295.81 205.757C300.986 203.663 303.485 197.77 301.392 192.594Z" fill="#151B0D"/>
<path d="M287.484 191.323C286.468 188.811 283.609 187.598 281.097 188.614C278.585 189.63 277.373 192.489 278.388 195.001C279.404 197.513 282.264 198.725 284.775 197.71C287.287 196.694 288.5 193.834 287.484 191.323Z" fill="white"/>
<path d="M351.568 239.71C344.03 248.195 334.819 255.026 324.516 259.777L324.025 260.002C313.687 264.686 302.494 267.181 291.149 267.33L290.609 267.336C279.26 267.411 268.02 265.137 257.595 260.66L257.099 260.445C246.535 255.825 237.061 249.036 229.289 240.52L249.129 222.416C254.363 228.153 260.745 232.725 267.86 235.837L268.529 236.124C275.457 239.045 282.908 240.528 290.431 240.478L291.159 240.469C298.676 240.32 306.086 238.644 312.938 235.538L313.599 235.233C320.406 232.041 326.494 227.495 331.491 221.871L351.568 239.71Z" fill="#FF7448"/>
<path d="M304.108 246.531L295.804 247.698L296.405 251.975L304.006 250.906L304.293 252.952L296.693 254.021L297.391 258.992L305.956 257.789L306.243 259.835L295.68 261.319L293.518 245.933L303.821 244.484L304.108 246.531ZM282.609 255.893L283.787 260.533L281.628 260.23L280.448 255.581L282.609 255.893ZM281.104 244.505C283.773 244.88 285.64 247.369 285.263 250.051C284.886 252.732 282.406 254.608 279.737 254.233L274.102 253.441L273.307 259.101L271.309 258.819L272.386 251.154L280.015 252.227C281.585 252.447 283.041 251.343 283.262 249.769C283.483 248.194 282.384 246.732 280.818 246.512L273.189 245.439L274.079 243.518L281.104 244.505ZM262.685 239.674C264.688 240.83 265.374 243.402 264.215 245.408C263.604 246.467 262.598 247.154 261.495 247.402L261.498 247.404C262.043 248.679 262.009 250.184 261.26 251.48C260.001 253.661 257.217 254.407 255.043 253.152L248.574 249.417L256.321 235.999L262.685 239.674ZM324.889 252.278L322.733 253.523L309.886 242.999L311.759 241.917L322.583 250.786L320.235 237.024L322.17 235.906L324.889 252.278ZM251.333 248.675L256.054 251.401C257.263 252.099 258.813 251.684 259.513 250.472C260.213 249.259 259.798 247.709 258.588 247.011L253.867 244.285L251.333 248.675ZM254.877 242.534L259.495 245.199C260.533 245.799 261.867 245.441 262.468 244.399C263.069 243.358 262.712 242.024 261.674 241.425L257.057 238.759L254.877 242.534Z" fill="white"/>
<path d="M249.724 217.85L254.051 222.177L229.621 246.607L225.294 242.279L249.724 217.85Z" fill="#5B3434"/>
<path d="M331.681 218.604L327.414 222.99L350.886 245.822L355.153 241.435L331.681 218.604Z" fill="#5B3434"/>
<path d="M232.414 227.639C245.492 243.261 256.506 232.065 253.64 225.034C250.775 218.004 228.65 223.142 232.414 227.639Z" fill="black"/>
<path d="M244.846 221.508C244.139 221.375 243.653 220.709 243.751 219.988C243.852 219.244 244.537 218.723 245.282 218.824L245.503 218.855C250.129 219.54 252.696 221.711 254.021 224.044C255.232 226.175 255.34 228.328 255.219 229.306L255.193 229.485L255.178 229.554C255.015 230.255 254.329 230.711 253.613 230.583C252.897 230.454 252.414 229.786 252.505 229.073L252.516 229.004L252.526 228.932C252.571 228.499 252.547 226.956 251.656 225.387C250.761 223.81 248.906 222.061 244.916 221.519L244.846 221.508Z" fill="#08817D"/>
<path d="M348.399 228.654C335.321 244.277 324.307 233.08 327.173 226.05C330.038 219.02 352.163 224.158 348.399 228.654Z" fill="black"/>
<path d="M335.966 222.521C336.673 222.388 337.159 221.723 337.062 221.002C336.96 220.258 336.275 219.736 335.531 219.838L335.309 219.869C330.684 220.554 328.116 222.725 326.791 225.058C325.581 227.189 325.473 229.342 325.593 230.319L325.62 230.499L325.634 230.568C325.797 231.268 326.483 231.725 327.199 231.596C327.915 231.467 328.399 230.8 328.307 230.086L328.297 230.017L328.287 229.946C328.242 229.512 328.265 227.97 329.156 226.401C330.052 224.824 331.907 223.075 335.897 222.532L335.966 222.521Z" fill="#08817D"/>
<g clip-path="url(#clip0_770_6368)">
<path d="M504.9 54.9001C504.9 54.9001 514.5 47.0001 533.1 47.4001C551.7 47.8001 560.5 65.4001 560.5 65.4001C560.5 65.4001 563.1 50.5001 574.5 41.9001C585.9 33.4001 598.9 32.7001 598.9 32.7001C598.9 32.7001 566.3 24.5001 557.3 48.6001C557.3 48.6001 550.9 39.9001 537 39.6001C516.1 39.2001 504.9 54.9001 504.9 54.9001Z" fill="white"/>
<path d="M0 253.8C0 253.8 5.4 249.3 15.9 249.6C26.4 249.8 31.4 259.7 31.4 259.7C31.4 259.7 32.9 251.3 39.3 246.5C45.7 241.7 53 241.3 53 241.3C53 241.3 34.6 236.7 29.5 250.3C29.5 250.3 25.9 245.4 18.1 245.3C6.3 245 0 253.8 0 253.8Z" fill="white"/>
<path d="M216 21.227C216 21.227 218.343 19.112 222.9 19.253C227.457 19.347 229.626 24 229.626 24C229.626 24 230.234 20.052 233.055 17.796C235.832 15.54 239 15.352 239 15.352C239 15.352 231.015 13.19 228.802 19.582C228.802 19.582 227.24 17.279 223.855 17.232C218.734 17.091 216 21.227 216 21.227Z" fill="white"/>
</g>
<defs>
<linearGradient id="paint0_linear_770_6368" x1="105" y1="234.5" x2="262.763" y2="234.5" gradientUnits="userSpaceOnUse">
<stop stop-color="white" stop-opacity="0.3"/>
<stop offset="1" stop-color="white"/>
</linearGradient>
<linearGradient id="paint1_linear_770_6368" x1="469.5" y1="82" x2="469.5" y2="165" gradientUnits="userSpaceOnUse">
<stop stop-color="white"/>
<stop offset="1" stop-color="white" stop-opacity="0"/>
</linearGradient>
<linearGradient id="paint2_linear_770_6368" x1="97.9337" y1="125" x2="97.9337" y2="180" gradientUnits="userSpaceOnUse">
<stop stop-color="white"/>
<stop offset="1" stop-color="white" stop-opacity="0"/>
</linearGradient>
<linearGradient id="paint3_linear_770_6368" x1="305.191" y1="8.79739" x2="298.479" y2="102.294" gradientUnits="userSpaceOnUse">
<stop stop-color="#FFB59E"/>
<stop offset="1" stop-color="white"/>
</linearGradient>
<radialGradient id="paint4_radial_770_6368" cx="0" cy="0" r="1" gradientUnits="userSpaceOnUse" gradientTransform="translate(298 100.5) rotate(-87.2073) scale(61.5731 105.406)">
<stop offset="0.0799348" stop-color="white"/>
<stop offset="0.7129" stop-color="#FFB59E"/>
</radialGradient>
<clipPath id="clip0_770_6368">
<rect width="598.9" height="249.7" fill="white" transform="translate(0 10)"/>
</clipPath>
</defs>
</svg>
