<svg width="49" height="50" viewBox="0 0 49 50" fill="none" xmlns="http://www.w3.org/2000/svg">
<path d="M44.8457 39.8721C46.6325 39.8721 48.0877 41.3213 48.0879 43.1016H46.7598C46.7596 42.0498 45.9024 41.1953 44.8457 41.1953H43.0645C42.4405 41.1953 41.8643 41.6083 41.7422 42.2158C41.6122 42.8678 41.9887 43.4855 42.5938 43.6855L46.3457 44.6504H46.3486C47.8276 45.2342 48.056 46.1949 48.0879 47.3047C48.1302 48.7931 46.9431 50 45.4775 50H43.7627C41.9041 50 40.3906 48.4901 40.3906 46.6387H41.7178C41.7178 47.7616 42.6343 48.6768 43.7627 48.6768H45.4297C46.1174 48.6768 46.718 48.1587 46.7578 47.4775C46.7923 46.8754 46.7358 46.0999 46.0059 45.9316L42.1748 44.9404C41.0225 44.5565 40.2759 43.4303 40.4033 42.2021C40.5415 40.861 41.7368 39.8721 43.0908 39.8721H44.8457ZM14.2979 39.8721C16.0715 39.8721 17.5166 41.3086 17.5166 43.0732C17.5164 44.8377 16.0714 46.2734 14.2979 46.2734H10.5547V49.9971H9.22656V44.9531H14.2959C15.3391 44.953 16.1864 44.1092 16.1865 43.0732C16.1865 42.0372 15.3366 41.1925 14.2959 41.1924H9.22656L9.63086 39.8721H14.2979ZM25.8535 41.2188H20.3359V44.0332H25.3857V45.3789H20.3359V48.6514H26.0264V49.9971H19.0088V39.8721H25.8535V41.2188ZM31.5801 48.4033L34.7695 39.8721H36.2402L32.4033 49.9971H30.7656L26.9072 39.8721H28.3311L31.5801 48.4033ZM38.6006 49.9971H37.2734V39.8721H38.6006V49.9971ZM16.3213 47.083L17.5137 49.9707H16.0791L14.8848 47.0781L16.3213 47.083ZM4.83496 39.8721C6.35636 39.8721 7.59375 41.1008 7.59375 42.6104C7.5937 43.4071 7.2461 44.1224 6.69922 44.6221H6.70215C7.43204 45.1638 7.9071 46.0236 7.90723 46.999C7.90723 48.64 6.56642 49.9686 4.91504 49.9688H0V39.8721H4.83496ZM1.32812 48.6514H4.91504C5.8336 48.6512 6.5791 47.9115 6.5791 46.999C6.57889 46.0867 5.83347 45.3478 4.91504 45.3477H1.32812V48.6514ZM1.32812 44.0303H4.83496C5.62348 44.0303 6.2665 43.394 6.2666 42.6104C6.2666 41.8267 5.62354 41.1904 4.83496 41.1904H1.32812V44.0303ZM10.3545 12.8906C10.0075 14.0971 9.82131 15.3718 9.82129 16.6885C9.82129 24.3337 16.0757 30.5291 23.7939 30.5293C31.5124 30.5293 37.7676 24.3338 37.7676 16.6885C37.7676 15.3912 37.5872 14.1394 37.25 12.9492L39.8105 11.4922L39.8174 11.4961C40.3576 13.1307 40.6494 14.8755 40.6494 16.6885C40.6494 25.9069 33.1044 33.3807 23.7979 33.3809C14.4912 33.3809 6.94629 25.907 6.94629 16.6885C6.94632 14.8527 7.24448 13.0884 7.79785 11.4375L10.3545 12.8906ZM23.8008 4.64551C29.6624 4.64551 34.5513 8.7514 35.7041 14.2168L34.1523 14.541C34.2997 15.2318 34.375 15.9523 34.375 16.6885C34.375 18.8942 33.687 20.9383 32.5146 22.625L33.8213 23.5137C31.6272 26.6663 27.9595 28.7324 23.8008 28.7324C23.2409 28.7324 22.6942 28.6934 22.1572 28.6221L22.3701 27.0654C17.6709 26.4362 13.9504 22.7474 13.3184 18.0928L15.2178 17.8369C15.7352 21.6481 18.7774 24.6648 22.625 25.1807C23.008 25.2325 23.3979 25.2588 23.7939 25.2588C26.7543 25.2588 29.368 23.7856 30.9268 21.541C31.8862 20.1625 32.4492 18.4889 32.4492 16.6855C32.4492 16.0823 32.3868 15.4953 32.2656 14.9277C31.4502 11.0353 27.9659 8.1123 23.7939 8.1123C21.1351 8.11245 18.761 9.30005 17.1729 11.165L15.7061 9.94238L14.4941 8.93359C16.7209 6.30951 20.0612 4.64555 23.791 4.64551H23.8008ZM23.7842 11.418C26.3483 11.418 28.4902 13.2149 28.9912 15.6055L28.998 15.6084C29.0701 15.9554 29.1094 16.3188 29.1094 16.6885C29.1094 17.7977 28.7655 18.8263 28.1729 19.6729C27.2134 21.0514 25.6078 21.9561 23.7871 21.9561C23.5417 21.956 23.303 21.9396 23.0674 21.9072C20.7031 21.5893 18.8333 19.7374 18.5156 17.3955C18.4829 17.1653 18.4658 16.9284 18.4658 16.6885C18.4659 15.3977 18.9376 14.2138 19.7168 13.2959C20.6894 12.1477 22.1534 11.418 23.7842 11.418ZM23.791 0C31.0148 0.000124415 37.1775 4.50221 39.5713 10.8271L37.0332 12.2676C35.1732 6.7924 29.9473 2.84778 23.791 2.84766V2.85156C17.6577 2.85156 12.4472 6.76601 10.5674 12.2119L8.0332 10.7725C10.4434 4.47652 16.567 0 23.791 0Z" fill="black"/>
</svg>
