<svg width="24" height="24" viewBox="0 0 24 24" fill="none" xmlns="http://www.w3.org/2000/svg">
<path fill-rule="evenodd" clip-rule="evenodd" d="M9.51942 5.00602C9.69009 4.9752 9.8601 5.06465 9.9433 5.22906C10.0503 5.44045 10.1753 5.70511 10.2847 5.95745C11.4251 5.80386 12.5719 5.80406 13.7247 5.95772C13.8315 5.70648 13.9554 5.43846 14.0728 5.21958C14.1579 5.06074 14.325 4.9757 14.4922 5.00611C15.7707 5.23864 16.9947 5.65513 18.1462 6.22586C18.2134 6.25917 18.271 6.31168 18.3127 6.37775C20.3079 9.53411 21.3027 13.1193 20.9188 17.2407C20.9072 17.3653 20.8472 17.4787 20.7539 17.5526C19.2274 18.7612 17.7351 19.4972 16.2812 19.9806C16.1162 20.0354 15.9373 19.9716 15.8346 19.8214C15.4738 19.2936 15.1491 18.7267 14.8695 18.1304C14.8417 18.0712 14.827 18.0068 14.8254 17.9419C12.9672 18.5011 11.0387 18.4992 9.16838 17.9371C9.16746 18.0036 9.15267 18.0698 9.12425 18.1304C8.84461 18.7267 8.51994 19.2936 8.15916 19.8214C8.05649 19.9716 7.87761 20.0354 7.71269 19.9806C6.25701 19.4969 4.77402 18.7609 3.24066 17.5533C3.14621 17.4789 3.08577 17.3641 3.07472 17.2382C2.76244 13.68 3.39013 10.0657 5.69641 6.37949C5.73804 6.31294 5.79567 6.25998 5.86306 6.22635C7.00761 5.65509 8.23216 5.23853 9.51942 5.00602ZM6.30681 6.97686C4.20896 10.3764 3.6159 13.6845 3.86886 16.9558C5.17234 17.9574 6.4332 18.601 7.67377 19.0416C7.85684 18.7571 8.02869 18.4615 8.18775 18.1563C7.80815 17.9793 7.442 17.7763 7.08599 17.5477C6.96759 17.4716 6.89267 17.3359 6.88683 17.1869C6.88098 17.0379 6.94501 16.8957 7.05703 16.8091C7.16854 16.7228 7.2813 16.6269 7.3866 16.5303C7.50699 16.4198 7.67543 16.3947 7.81889 16.4658C10.5434 17.8153 13.4857 17.8143 16.1732 16.4666C16.3121 16.3969 16.4754 16.4176 16.5958 16.5202C16.6408 16.5586 16.681 16.5936 16.7187 16.6264C16.7955 16.6934 16.8618 16.7511 16.9368 16.8091C17.0488 16.8958 17.1128 17.0379 17.1069 17.1869C17.1011 17.3359 17.0262 17.4716 16.9078 17.5477C16.5518 17.7763 16.1856 17.9793 15.806 18.1563C15.9651 18.4615 16.1369 18.7571 16.32 19.0416C17.5617 18.6006 18.829 17.9568 20.1259 16.9556C20.4363 13.1848 19.526 9.90085 17.7047 6.97781C16.732 6.50579 15.7071 6.1507 14.6418 5.93142C14.5359 6.15388 14.43 6.40138 14.3479 6.61111C14.2757 6.79559 14.0979 6.90416 13.9149 6.87547C12.6323 6.67442 11.3604 6.67455 10.0971 6.87535C9.91383 6.90447 9.73554 6.7959 9.66321 6.61115C9.58305 6.40639 9.47323 6.15876 9.3656 5.93179C8.29483 6.15103 7.27153 6.50574 6.30681 6.97686ZM9.15214 11.7741C8.55098 11.7741 8.01331 12.3655 8.01331 13.1964C8.01331 14.0241 8.56554 14.6188 9.15214 14.6188C9.74598 14.6188 10.2909 14.0258 10.2909 13.1964C10.2909 13.1937 10.2909 13.191 10.291 13.1883C10.3048 12.3733 9.75224 11.7741 9.15214 11.7741ZM7.1991 13.1964C7.1991 11.9757 8.01628 10.8917 9.15214 10.8917C10.2704 10.8917 11.1241 11.9656 11.1051 13.2005C11.1033 14.4213 10.2766 15.5011 9.15214 15.5011C8.03646 15.5011 7.1991 14.4206 7.1991 13.1964ZM14.859 11.7741C14.2575 11.7741 13.7193 12.3659 13.7193 13.1964C13.7193 14.0237 14.2721 14.6188 14.859 14.6188C15.4602 14.6188 15.9978 14.0275 15.9978 13.1964C15.9978 13.1937 15.9978 13.191 15.9978 13.1883C16.0117 12.3733 15.4591 11.7741 14.859 11.7741ZM12.9051 13.1964C12.9051 11.9754 13.7234 10.8917 14.859 10.8917C15.9772 10.8917 16.831 11.9656 16.812 13.2004C16.8102 14.4196 15.9937 15.5011 14.859 15.5011C13.7436 15.5011 12.9051 14.421 12.9051 13.1964Z" fill="white"/>
</svg>
